<?xml version="1.0" ?><!DOCTYPE svg  PUBLIC '-//W3C//DTD SVG 1.1//EN'  'http://www.w3.org/Graphics/SVG/1.1/DTD/svg11.dtd'><svg enable-background="new 0 0 512 512" height="512px" version="1.1" viewBox="0 0 512 512" width="512px" xml:space="preserve" xmlns="http://www.w3.org/2000/svg" xmlns:xlink="http://www.w3.org/1999/xlink"><g id="Layer_2"><path clip-rule="evenodd" d="M261.924,27.918C391.201,27.918,496,132.716,496,261.991   c0,129.274-104.799,234.07-234.076,234.07S27.848,391.266,27.848,261.991C27.848,132.716,132.646,27.918,261.924,27.918z" fill-rule="evenodd" opacity="0.15"/><linearGradient gradientTransform="matrix(1 0 0 -1 -47.7202 343.2207)" gradientUnits="userSpaceOnUse" id="SVGID_1_" x1="303.7207" x2="303.7207" y1="-121.5068" y2="301.8447"><stop offset="0" style="stop-color:#548AFF"/><stop offset="1" style="stop-color:#9FE1E7"/></linearGradient><path d="M256,44.323c116.907,0,211.683,94.771,211.683,211.678S372.907,467.676,256,467.676   c-116.909,0-211.682-94.771-211.682-211.675C44.318,139.096,139.091,44.323,256,44.323z" fill="url(#SVGID_1_)"/><linearGradient gradientUnits="userSpaceOnUse" id="SVGID_2_" x1="256.0005" x2="256.0005" y1="463.5" y2="367.0977"><stop offset="0" style="stop-color:#1C1B17"/><stop offset="1" style="stop-color:#4C4B45"/></linearGradient><rect fill="url(#SVGID_2_)" height="96.402" width="200.656" x="155.672" y="367.098"/><g><linearGradient gradientUnits="userSpaceOnUse" id="SVGID_3_" x1="326.2041" x2="326.2041" y1="421.0811" y2="386.373"><stop offset="0" style="stop-color:#ADADAD"/><stop offset="1" style="stop-color:#D1D3D4"/></linearGradient><path d="M314.344,386.373h27.008l-9.683,16.324l10.312,18.322    c-0.204,0.032-0.409,0.062-0.621,0.062h-27.016c-2.164,0-3.916-1.76-3.916-3.932v-26.843    C310.428,388.133,312.18,386.373,314.344,386.373z" fill="url(#SVGID_3_)" stroke="#C9C9C9" stroke-miterlimit="10"/><linearGradient gradientUnits="userSpaceOnUse" id="SVGID_4_" x1="185.7954" x2="185.7954" y1="421.0811" y2="386.373"><stop offset="0" style="stop-color:#ADADAD"/><stop offset="1" style="stop-color:#D1D3D4"/></linearGradient><path d="M201.571,390.307v26.843c0,2.172-1.752,3.932-3.915,3.932    h-27.016c-0.212,0-0.418-0.029-0.622-0.062l10.312-18.322l-9.684-16.324h27.009C199.819,386.373,201.571,388.133,201.571,390.307z    " fill="url(#SVGID_4_)" stroke="#C9C9C9" stroke-miterlimit="10"/></g><linearGradient gradientUnits="userSpaceOnUse" id="SVGID_5_" x1="255.9995" x2="255.9995" y1="381.2471" y2="415.9551"><stop offset="0" style="stop-color:#E6E7E8"/><stop offset="1" style="stop-color:#D1D3D4"/></linearGradient><path clip-rule="evenodd" d="M192.5,381.247   h127c2.179,0,3.944,1.767,3.944,3.944v26.818c0,2.179-1.766,3.945-3.944,3.945h-127c-2.178,0-3.943-1.767-3.943-3.945v-26.818   C188.556,383.014,190.322,381.247,192.5,381.247z" fill="url(#SVGID_5_)" fill-rule="evenodd" stroke="#E0E0E0" stroke-miterlimit="10"/></g><g id="Layer_3"><path clip-rule="evenodd" d="M268.013,55.668c-115.425,0-208.993,93.568-208.993,208.99   c0,67.952,32.452,128.308,82.685,166.477c-57.996-37.757-96.373-103.117-96.373-177.477c0-116.906,94.772-211.678,211.682-211.678   c74.365,0,139.729,38.38,177.486,96.378C396.329,88.124,335.972,55.668,268.013,55.668z" fill-rule="evenodd" opacity="0.3"/><g><g><path clip-rule="evenodd" d="M256,21.928c-129.277,0-234.076,104.798-234.076,234.073     c0,129.274,104.799,234.071,234.076,234.071s234.076-104.797,234.076-234.071C490.076,126.726,385.277,21.928,256,21.928z      M256,463.443c-114.571,0-207.447-92.875-207.447-207.443c0-114.567,92.876-207.443,207.447-207.443     c114.569,0,207.446,92.876,207.446,207.443C463.446,370.568,370.569,463.443,256,463.443z" fill="#FFFFFF" fill-rule="evenodd"/></g><g><path d="M256,21.928c-129.277,0-234.076,104.798-234.076,234.073     c0,129.274,104.799,234.071,234.076,234.071s234.076-104.797,234.076-234.071C490.076,126.726,385.277,21.928,256,21.928z      M256,463.443c-114.571,0-207.447-92.875-207.447-207.443c0-114.567,92.876-207.443,207.447-207.443     c114.569,0,207.446,92.876,207.446,207.443C463.446,370.568,370.569,463.443,256,463.443z" fill="none" stroke="#EAEAEA" stroke-miterlimit="10"/></g></g></g><g id="Layer_5"><radialGradient cx="257.7813" cy="96.8208" gradientTransform="matrix(1 0 0 1.2952 0 -28.5854)" gradientUnits="userSpaceOnUse" id="SVGID_6_" r="109.0466"><stop offset="0" style="stop-color:#FAD165"/><stop offset="0.4894" style="stop-color:#F9D063"/><stop offset="0.7215" style="stop-color:#F7CC5B"/><stop offset="0.8988" style="stop-color:#F4C64E"/><stop offset="1" style="stop-color:#F1C143"/></radialGradient><path clip-rule="evenodd" d="M419.571,60.877c-2.357-7.148-7.923-11.77-14.176-11.77   h-44.724c-0.101-8.951-0.479-14.267-0.479-14.267H256.004H151.792c0,0-0.362,5.316-0.467,14.267h-44.721   c-6.256,0-11.821,4.622-14.174,11.77c-6.069,18.442,9.175,91.271,36.765,120.78c10.107,10.801,22.358,17.503,36.11,19.901   c3.775,1.566,6.716,4.975,6.425,7.648c-0.497,4.475-7.615,5.247-4.629,13.999c3.312,9.752,21.555,4.839,24.356-10.696   c9.628,12.644,21.536,23.159,36.237,30.101c19.04,8.999,11.011,73.945,11.011,73.945s-35.727,0-41.088,9.447   c-3.32,5.854-2.68,12.602-2.68,12.602s-19.656,7.354-19.656,16.8c0,9.452,0,11.694,0,11.694h80.722h80.719c0,0,0-2.242,0-11.694   c0-9.446-19.664-16.8-19.664-16.8s0.648-6.748-2.681-12.602c-5.364-9.447-41.086-9.447-41.086-9.447s-8.03-64.946,11.01-73.945   c14.709-6.942,26.612-17.457,36.241-30.101c2.803,15.536,21.052,20.448,24.359,10.696c2.987-8.752-4.134-9.524-4.637-13.999   c-0.284-2.673,2.666-6.082,6.431-7.648c13.758-2.397,25.999-9.1,36.106-19.901C410.399,152.148,425.636,79.319,419.571,60.877z    M106.604,65.531c4.704,0,31.145,0,44.852,0c0.835,31.209,5.464,80.534,24.252,120.603c-14.557-0.273-27.017-5.823-37.109-16.626   C112.483,141.571,100.202,65.531,106.604,65.531z M373.401,169.508c-10.103,10.803-22.553,16.354-37.12,16.626   c18.796-40.069,23.433-89.394,24.26-120.603c13.695,0,40.154,0,44.854,0C411.8,65.531,399.518,141.571,373.401,169.508z" fill="url(#SVGID_6_)" fill-rule="evenodd"/><linearGradient gradientUnits="userSpaceOnUse" id="SVGID_7_" x1="175.2788" x2="336.7188" y1="352.8506" y2="352.8506"><stop offset="0" style="stop-color:#F4C74F"/><stop offset="0.1539" style="stop-color:#F6CB58"/><stop offset="0.4439" style="stop-color:#F9D062"/><stop offset="0.8049" style="stop-color:#FAD165"/><stop offset="0.9004" style="stop-color:#F9D063"/><stop offset="0.9457" style="stop-color:#F7CC5B"/><stop offset="0.9802" style="stop-color:#F4C64E"/><stop offset="1" style="stop-color:#F1C143"/></linearGradient><path clip-rule="evenodd" d="M194.935,338.604c0,0-19.656,7.354-19.656,16.8   c0,9.452,0,11.694,0,11.694H256h80.718c0,0,0-2.242,0-11.694c0-9.446-19.662-16.8-19.662-16.8H194.935z" fill="url(#SVGID_7_)" fill-rule="evenodd"/><linearGradient gradientUnits="userSpaceOnUse" id="SVGID_8_" x1="452.9395" x2="368.8253" y1="138.668" y2="138.668"><stop offset="0" style="stop-color:#FAD165"/><stop offset="1" style="stop-color:#E6B32F"/></linearGradient><path clip-rule="evenodd" d="M419.571,60.877c-2.357-7.148-7.921-11.77-14.174-11.77   h-44.726l-0.131,16.424c13.696,0,40.156,0,44.856,0c6.402,0-5.879,76.04-31.994,103.977   c-10.103,10.803-22.554,16.354-37.121,16.626l-15.738,26.375c2.802,15.536,21.051,20.448,24.36,10.696   c2.986-8.752-4.136-9.524-4.638-13.999c-0.284-2.673,2.666-6.082,6.43-7.648c13.758-2.397,26-9.1,36.106-19.901   C410.399,152.148,425.636,79.319,419.571,60.877z" fill="url(#SVGID_8_)" fill-rule="evenodd"/><linearGradient gradientTransform="matrix(-1 0 0 1 683.832 0)" gradientUnits="userSpaceOnUse" id="SVGID_9_" x1="624.7725" x2="540.6591" y1="138.667" y2="138.667"><stop offset="0" style="stop-color:#FAD165"/><stop offset="1" style="stop-color:#E6B32F"/></linearGradient><path clip-rule="evenodd" d="M92.429,60.877c2.357-7.148,7.92-11.77,14.174-11.77   h44.725l0.13,16.424c-13.696,0-40.156,0-44.855,0c-6.403,0,5.878,76.04,31.993,103.977c10.103,10.803,22.553,16.354,37.121,16.626   l15.739,26.375c-2.801,15.536-21.051,20.448-24.36,10.696c-2.986-8.752,4.136-9.524,4.637-13.999   c0.284-2.673-2.665-6.082-6.428-7.648c-13.76-2.397-26.001-9.1-36.106-19.901C101.601,152.148,86.363,79.319,92.429,60.877z" fill="url(#SVGID_9_)" fill-rule="evenodd"/><path clip-rule="evenodd" d="M352.263,59.021   c-2.969,2.47-4.104,29.653-4.104,29.653s-1.978-27.56-4.871-29.606c-2.891-2.046-20.938-4.216-20.938-4.216   s19.392-2.125,21.491-4.599c2.104-2.476,4.318-34.899,4.318-34.899s2.144,31.663,4.29,35.097   c2.144,3.435,29.919,4.401,29.919,4.401S355.232,56.549,352.263,59.021z" fill="#FFFFFF" fill-rule="evenodd" opacity="0.8"/><path clip-rule="evenodd" d="M191.048,205.429   c-1.96,1.628-2.708,19.571-2.708,19.571s-1.306-18.19-3.215-19.54c-1.909-1.351-13.82-2.784-13.82-2.784s12.797-1.401,14.185-3.035   c1.388-1.634,2.85-23.034,2.85-23.034s1.416,20.898,2.831,23.165c1.416,2.266,19.747,2.903,19.747,2.903   S193.007,203.798,191.048,205.429z" fill="#FFFFFF" fill-rule="evenodd" opacity="0.8"/><path clip-rule="evenodd" d="M312.896,336.23c-1.664,1.383-2.3,16.62-2.3,16.62   s-1.109-15.448-2.73-16.594c-1.621-1.146-11.735-2.364-11.735-2.364s10.867-1.189,12.046-2.577c1.178-1.387,2.42-19.56,2.42-19.56   s1.202,17.747,2.403,19.672c1.203,1.925,16.769,2.465,16.769,2.465S314.562,334.846,312.896,336.23z" fill="#FFFFFF" fill-rule="evenodd" opacity="0.8"/><path clip-rule="evenodd" d="M153.909,364.964   c-1.215,1.008-1.679,12.13-1.679,12.13s-0.81-11.275-1.993-12.111c-1.183-0.837-8.565-1.726-8.565-1.726s7.932-0.867,8.792-1.881   c0.86-1.013,1.767-14.274,1.767-14.274s0.877,12.951,1.754,14.356c0.878,1.404,12.238,1.799,12.238,1.799   S155.123,363.952,153.909,364.964z" fill="#FFFFFF" fill-rule="evenodd" opacity="0.8"/><g><g opacity="0.15"><polygon points="257,58.256 279.011,102.856 328.229,110.008 292.615,144.724 301.022,193.744 257,170.6 212.978,193.744      221.385,144.724 185.77,110.008 234.989,102.856    "/></g><g><polygon fill="#FFE36C" points="256,57.256 278.011,101.856 327.229,109.008 291.615,143.724 300.022,192.744 256,169.6      211.978,192.744 220.385,143.724 184.77,109.008 233.989,101.856    "/></g></g><linearGradient gradientUnits="userSpaceOnUse" id="SVGID_10_" x1="202.0737" x2="202.0737" y1="227.355" y2="34.8403"><stop offset="0" style="stop-color:#FFFFFF;stop-opacity:0.1"/><stop offset="0.8529" style="stop-color:#FFFFFF;stop-opacity:0.2706"/><stop offset="1" style="stop-color:#FFFFFF;stop-opacity:0.3"/></linearGradient><path clip-rule="evenodd" d="M202.071,34.84h-30.292c0,0-5.557,146.16,54.06,190.691   c5.494,4.104,6.667,0,6.667,0S200.085,200.804,202.071,34.84z" fill="url(#SVGID_10_)" fill-rule="evenodd"/><path clip-rule="evenodd" d="M273.292,316.555c0,0-8.625-60.555,11.01-73.945   c-28.303,8.392-28.303,8.392-56.606,0C247,256,238.706,316.555,238.706,316.555H273.292z" fill="#E5B64E" fill-rule="evenodd"/><path clip-rule="evenodd" d="M204.935,338.604c0,0-19.656,7.354-19.656,16.8   c0,9.452,0,11.694,0,11.694h26.44c0,0,0-2.242,0-11.694c0-9.446,10.338-16.8,10.338-16.8H204.935z" fill="#FCFCFC" fill-rule="evenodd" opacity="0.2"/><path clip-rule="evenodd" d="M232.584,316.555c0,0-19.945,0.908-19.945,10.354   c0,9.452,0,11.694,0,11.694h15.44c0,0,0-2.242,0-11.694c0-9.446,10.627-10.354,10.627-10.354H232.584z" fill="#FCFCFC" fill-rule="evenodd" opacity="0.2"/><path clip-rule="evenodd" d="M341.942,227.866   c-1.215,1.008-1.679,12.13-1.679,12.13s-0.811-11.275-1.993-12.111c-1.183-0.837-8.565-1.726-8.565-1.726s7.932-0.867,8.792-1.881   c0.86-1.013,1.767-14.274,1.767-14.274s0.877,12.951,1.754,14.356c0.878,1.404,12.238,1.799,12.238,1.799   S343.156,226.854,341.942,227.866z" fill="#FFFFFF" fill-rule="evenodd" opacity="0.8"/><path clip-rule="evenodd" d="M102.344,119.967   c-1.215,1.008-1.679,12.131-1.679,12.131s-0.811-11.275-1.993-12.111c-1.183-0.838-8.565-1.727-8.565-1.727s7.932-0.867,8.792-1.88   c0.86-1.013,1.767-14.274,1.767-14.274s0.877,12.951,1.754,14.356c0.878,1.404,12.238,1.798,12.238,1.798   S103.558,118.955,102.344,119.967z" fill="#FFFFFF" fill-rule="evenodd" opacity="0.8"/></g></svg>